<?xml version="1.0" encoding="utf-8"?>
<svg id="master-artboard" viewBox="0 0 895.2941284179688 128.23536682128906" version="1.1" xmlns="http://www.w3.org/2000/svg" x="0px" y="0px" style="enable-background:new 0 0 1400 980;" width="300.2941284179688px" height="50.23536682128906px"><rect id="ee-background" x="0" y="0" width="895.2941284179688" height="128.23536682128906" style="fill: white; fill-opacity: 0; pointer-events: none;"/><defs><style id="ee-google-fonts">@import url(https://fonts.googleapis.com/css?family=Nova+Square:400);</style></defs>























































































































<path d="M 328.7850036621094 361.3865661621094 C 318.30499267578125 361.3865661621094 313.06500244140625 356.1465759277344 313.06500244140625 345.66656494140625 L 313.06500244140625 340.7265625 L 321.5950012207031 336.67657470703125 L 322.0450134277344 336.67657470703125 L 322.0450134277344 345.66656494140625 C 322.0450134277344 350.75323486328125 324.2916564941406 353.29656982421875 328.7850036621094 353.29656982421875 L 342.7149963378906 353.29656982421875 C 347.20166015625 353.29656982421875 349.44500732421875 350.75323486328125 349.44500732421875 345.66656494140625 L 349.44500732421875 336.2265625 C 349.44500732421875 331.139892578125 347.20166015625 328.5965576171875 342.7149963378906 328.5965576171875 L 330.5849914550781 328.5965576171875 C 321.59832763671875 328.5965576171875 317.1050109863281 324.1032409667969 317.1050109863281 315.1165771484375 L 317.1050109863281 307.02655029296875 C 317.1050109863281 298.04656982421875 321.59832763671875 293.55657958984375 330.5849914550781 293.55657958984375 L 340.9150085449219 293.55657958984375 C 349.90167236328125 293.55657958984375 354.3949890136719 298.04656982421875 354.3949890136719 307.02655029296875 L 354.3949890136719 309.41656494140625 L 345.8550109863281 313.4565734863281 L 345.4049987792969 313.4565734863281 L 345.4049987792969 307.02655029296875 C 345.4049987792969 303.4332275390625 343.9083251953125 301.6365661621094 340.9150085449219 301.6365661621094 L 330.5849914550781 301.6365661621094 C 327.5849914550781 301.6365661621094 326.0849914550781 303.4332275390625 326.0849914550781 307.02655029296875 L 326.0849914550781 315.1165771484375 C 326.0849914550781 318.70989990234375 327.5849914550781 320.5065612792969 330.5849914550781 320.5065612792969 L 342.7149963378906 320.5065612792969 C 353.19500732421875 320.5065612792969 358.43499755859375 325.74658203125 358.43499755859375 336.2265625 L 358.43499755859375 345.66656494140625 C 358.43499755859375 356.1465759277344 353.19500732421875 361.3865661621094 342.7149963378906 361.3865661621094 L 328.7850036621094 361.3865661621094 ZM 369.60107421875 363.1865539550781 L 369.60107421875 309.27655029296875 C 369.60107421875 298.79656982421875 374.8443908691406 293.55657958984375 385.3310546875 293.55657958984375 L 399.2510681152344 293.55657958984375 C 409.73773193359375 293.55657958984375 414.9810791015625 298.79656982421875 414.9810791015625 309.27655029296875 L 414.9810791015625 359.1365661621094 L 406.4410705566406 363.1865539550781 L 405.9910583496094 363.1865539550781 L 405.9910583496094 309.27655029296875 C 405.9910583496094 304.1832275390625 403.744384765625 301.6365661621094 399.2510681152344 301.6365661621094 L 385.3310546875 301.6365661621094 C 380.8377380371094 301.6365661621094 378.591064453125 304.1832275390625 378.591064453125 309.27655029296875 L 378.591064453125 359.1365661621094 L 370.0510559082031 363.1865539550781 L 369.60107421875 363.1865539550781 ZM 441.8708801269531 361.3865661621094 C 431.390869140625 361.3865661621094 426.15087890625 356.1465759277344 426.15087890625 345.66656494140625 L 426.15087890625 340.7265625 L 434.6808776855469 336.67657470703125 L 435.1308898925781 336.67657470703125 L 435.1308898925781 345.66656494140625 C 435.1308898925781 350.75323486328125 437.3775329589844 353.29656982421875 441.8708801269531 353.29656982421875 L 455.8008728027344 353.29656982421875 C 460.28753662109375 353.29656982421875 462.5308837890625 350.75323486328125 462.5308837890625 345.66656494140625 L 462.5308837890625 336.2265625 C 462.5308837890625 331.139892578125 460.28753662109375 328.5965576171875 455.8008728027344 328.5965576171875 L 443.6708679199219 328.5965576171875 C 434.6842041015625 328.5965576171875 430.1908874511719 324.1032409667969 430.1908874511719 315.1165771484375 L 430.1908874511719 307.02655029296875 C 430.1908874511719 298.04656982421875 434.6842041015625 293.55657958984375 443.6708679199219 293.55657958984375 L 454.0008850097656 293.55657958984375 C 462.987548828125 293.55657958984375 467.4808654785156 298.04656982421875 467.4808654785156 307.02655029296875 L 467.4808654785156 309.41656494140625 L 458.9408874511719 313.4565734863281 L 458.4908752441406 313.4565734863281 L 458.4908752441406 307.02655029296875 C 458.4908752441406 303.4332275390625 456.99420166015625 301.6365661621094 454.0008850097656 301.6365661621094 L 443.6708679199219 301.6365661621094 C 440.6708679199219 301.6365661621094 439.1708679199219 303.4332275390625 439.1708679199219 307.02655029296875 L 439.1708679199219 315.1165771484375 C 439.1708679199219 318.70989990234375 440.6708679199219 320.5065612792969 443.6708679199219 320.5065612792969 L 455.8008728027344 320.5065612792969 C 466.2808837890625 320.5065612792969 471.5208740234375 325.74658203125 471.5208740234375 336.2265625 L 471.5208740234375 345.66656494140625 C 471.5208740234375 356.1465759277344 466.2808837890625 361.3865661621094 455.8008728027344 361.3865661621094 L 441.8708801269531 361.3865661621094 ZM 513.6243896484375 363.1865539550781 L 513.6243896484375 324.6365661621094 L 506.8944091796875 324.6365661621094 L 506.8944091796875 324.1865539550781 L 510.5244140625 316.466552734375 L 513.6243896484375 316.466552734375 L 513.6243896484375 307.02655029296875 C 513.6243896484375 298.04656982421875 518.1177368164062 293.55657958984375 527.1044311523438 293.55657958984375 L 538.3344116210938 293.55657958984375 L 538.3344116210938 294.0065612792969 L 534.744384765625 301.6365661621094 L 527.1044311523438 301.6365661621094 C 524.111083984375 301.6365661621094 522.6143798828125 303.4332275390625 522.6143798828125 307.02655029296875 L 522.6143798828125 316.466552734375 L 537.4844360351562 316.466552734375 L 537.4844360351562 316.91656494140625 L 533.8444213867188 324.6365661621094 L 522.6143798828125 324.6365661621094 L 522.6143798828125 359.1365661621094 L 514.0744018554688 363.1865539550781 L 513.6243896484375 363.1865539550781 ZM 555.7919311523438 353.29656982421875 L 566.1318969726562 353.29656982421875 C 569.125244140625 353.29656982421875 570.6218872070312 351.4999084472656 570.6218872070312 347.90655517578125 L 570.6218872070312 325.4465637207031 C 570.6218872070312 321.8532409667969 569.125244140625 320.05657958984375 566.1318969726562 320.05657958984375 L 555.7919311523438 320.05657958984375 C 552.798583984375 320.05657958984375 551.3018798828125 321.8532409667969 551.3018798828125 325.4465637207031 L 551.3018798828125 347.90655517578125 C 551.3018798828125 351.4999084472656 552.798583984375 353.29656982421875 555.7919311523438 353.29656982421875 M 555.7919311523438 361.3865661621094 C 546.8118896484375 361.3865661621094 542.3218994140625 356.8932189941406 542.3218994140625 347.90655517578125 L 542.3218994140625 325.4465637207031 C 542.3218994140625 316.466552734375 546.8118896484375 311.9765625 555.7919311523438 311.9765625 L 566.1318969726562 311.9765625 C 575.1119384765625 311.9765625 579.6019287109375 316.466552734375 579.6019287109375 325.4465637207031 L 579.6019287109375 347.90655517578125 C 579.6019287109375 356.8932189941406 575.1119384765625 361.3865661621094 566.1318969726562 361.3865661621094 L 555.7919311523438 361.3865661621094 ZM 588.0836181640625 363.1865539550781 L 588.0836181640625 325.4465637207031 C 588.0836181640625 316.466552734375 592.5736083984375 311.9765625 601.5536499023438 311.9765625 L 612.7936401367188 311.9765625 L 612.7936401367188 312.42657470703125 L 609.193603515625 320.05657958984375 L 601.5536499023438 320.05657958984375 C 598.560302734375 320.05657958984375 597.0635986328125 321.8532409667969 597.0635986328125 325.4465637207031 L 597.0635986328125 359.1365661621094 L 588.5336303710938 363.1865539550781 L 588.0836181640625 363.1865539550781 ZM 648.6048583984375 361.3865661621094 L 648.6048583984375 295.79656982421875 L 653.3748779296875 293.55657958984375 L 681.8548583984375 293.55657958984375 L 681.8548583984375 294.0065612792969 L 678.2149047851562 301.7265625 L 657.5948486328125 301.7265625 L 657.5948486328125 323.3865661621094 L 681.8548583984375 323.3865661621094 L 681.8548583984375 323.8365783691406 L 678.2149047851562 331.55657958984375 L 657.5948486328125 331.55657958984375 L 657.5948486328125 353.2065734863281 L 689.3548583984375 353.2065734863281 L 689.3548583984375 353.65655517578125 L 685.7149047851562 361.3865661621094 L 648.6048583984375 361.3865661621094 ZM 691.0933837890625 363.1865539550781 L 691.0933837890625 325.4465637207031 C 691.0933837890625 316.466552734375 695.5833740234375 311.9765625 704.5634155273438 311.9765625 L 714.9033813476562 311.9765625 C 723.8834228515625 311.9765625 728.3734130859375 316.466552734375 728.3734130859375 325.4465637207031 L 728.3734130859375 359.1365661621094 L 719.8433837890625 363.1865539550781 L 719.3933715820312 363.1865539550781 L 719.3933715820312 325.4465637207031 C 719.3933715820312 321.8532409667969 717.896728515625 320.05657958984375 714.9033813476562 320.05657958984375 L 704.5634155273438 320.05657958984375 C 701.570068359375 320.05657958984375 700.0733642578125 321.8532409667969 700.0733642578125 325.4465637207031 L 700.0733642578125 359.1365661621094 L 691.5433959960938 363.1865539550781 L 691.0933837890625 363.1865539550781 ZM 750.3251342773438 361.3865661621094 C 741.3450927734375 361.3865661621094 736.8551025390625 356.8932189941406 736.8551025390625 347.90655517578125 L 736.8551025390625 325.4465637207031 C 736.8551025390625 316.466552734375 741.3450927734375 311.9765625 750.3251342773438 311.9765625 L 760.6651000976562 311.9765625 C 769.6451416015625 311.9765625 774.1351318359375 316.466552734375 774.1351318359375 325.4465637207031 L 774.1351318359375 366.3265686035156 C 774.1351318359375 375.313232421875 769.6451416015625 379.80657958984375 760.6651000976562 379.80657958984375 L 741.5250854492188 379.80657958984375 L 741.5250854492188 379.3565673828125 L 745.1151123046875 371.716552734375 L 760.6651000976562 371.716552734375 C 763.658447265625 371.716552734375 765.1550903320312 369.9198913574219 765.1550903320312 366.3265686035156 L 765.1550903320312 360.03656005859375 C 763.8951416015625 360.9365539550781 762.3984375 361.3865661621094 760.6651000976562 361.3865661621094 L 750.3251342773438 361.3865661621094 M 750.3251342773438 353.29656982421875 L 760.6651000976562 353.29656982421875 C 763.658447265625 353.29656982421875 765.1550903320312 351.4999084472656 765.1550903320312 347.90655517578125 L 765.1550903320312 325.4465637207031 C 765.1550903320312 321.8532409667969 763.658447265625 320.05657958984375 760.6651000976562 320.05657958984375 L 750.3251342773438 320.05657958984375 C 747.331787109375 320.05657958984375 745.8350830078125 321.8532409667969 745.8350830078125 325.4465637207031 L 745.8350830078125 347.90655517578125 C 745.8350830078125 351.4999084472656 747.331787109375 353.29656982421875 750.3251342773438 353.29656982421875 ZM 786.8844604492188 302.04656982421875 C 786.8844604492188 302.04656982421875 786.6211547851562 301.77655029296875 786.094482421875 301.236572265625 C 785.574462890625 300.6965637207031 785.3145141601562 299.6698913574219 785.3145141601562 298.15655517578125 C 785.3145141601562 296.64324951171875 785.8378295898438 295.34991455078125 786.8844604492188 294.27655029296875 C 787.93115234375 293.1965637207031 789.2044677734375 292.65655517578125 790.7044677734375 292.65655517578125 C 792.1978149414062 292.65655517578125 793.4678344726562 293.1965637207031 794.5144653320312 294.27655029296875 C 795.5678100585938 295.34991455078125 796.094482421875 296.64324951171875 796.094482421875 298.15655517578125 C 796.094482421875 299.6698913574219 795.5678100585938 300.966552734375 794.5144653320312 302.04656982421875 C 793.4678344726562 303.1265563964844 792.1978149414062 303.66656494140625 790.7044677734375 303.66656494140625 C 789.2044677734375 303.66656494140625 787.93115234375 303.1265563964844 786.8844604492188 302.04656982421875 M 786.2044677734375 363.1865539550781 L 786.2044677734375 314.216552734375 L 794.7445068359375 310.17657470703125 L 795.1944580078125 310.17657470703125 L 795.1944580078125 359.1365661621094 L 786.6544799804688 363.1865539550781 L 786.2044677734375 363.1865539550781 ZM 805.9176025390625 363.1865539550781 L 805.9176025390625 325.4465637207031 C 805.9176025390625 316.466552734375 810.4075927734375 311.9765625 819.3876342773438 311.9765625 L 829.7276000976562 311.9765625 C 838.7076416015625 311.9765625 843.1976318359375 316.466552734375 843.1976318359375 325.4465637207031 L 843.1976318359375 359.1365661621094 L 834.6676025390625 363.1865539550781 L 834.2175903320312 363.1865539550781 L 834.2175903320312 325.4465637207031 C 834.2175903320312 321.8532409667969 832.720947265625 320.05657958984375 829.7276000976562 320.05657958984375 L 819.3876342773438 320.05657958984375 C 816.394287109375 320.05657958984375 814.8975830078125 321.8532409667969 814.8975830078125 325.4465637207031 L 814.8975830078125 359.1365661621094 L 806.3676147460938 363.1865539550781 L 805.9176025390625 363.1865539550781 ZM 865.1493530273438 361.3865661621094 C 856.1693115234375 361.3865661621094 851.6793212890625 356.8932189941406 851.6793212890625 347.90655517578125 L 851.6793212890625 325.4465637207031 C 851.6793212890625 316.466552734375 856.1693115234375 311.9765625 865.1493530273438 311.9765625 L 875.4893188476562 311.9765625 C 884.4693603515625 311.9765625 888.9593505859375 316.466552734375 888.9593505859375 325.4465637207031 L 888.9593505859375 327.8265686035156 L 860.79931640625 349.6165771484375 C 861.2193603515625 352.06988525390625 862.6693115234375 353.29656982421875 865.1493530273438 353.29656982421875 L 875.4893188476562 353.29656982421875 C 878.482666015625 353.29656982421875 879.9793090820312 351.4999084472656 879.9793090820312 347.90655517578125 L 879.9793090820312 345.5265808105469 L 888.5093383789062 341.486572265625 L 888.9593505859375 341.486572265625 L 888.9593505859375 347.90655517578125 C 888.9593505859375 356.8932189941406 884.4693603515625 361.3865661621094 875.4893188476562 361.3865661621094 L 865.1493530273438 361.3865661621094 M 860.6593017578125 340.2265625 L 879.9293212890625 324.6865539550781 C 879.7493286132812 321.59991455078125 878.2693481445312 320.05657958984375 875.4893188476562 320.05657958984375 L 865.1493530273438 320.05657958984375 C 862.156005859375 320.05657958984375 860.6593017578125 321.8532409667969 860.6593017578125 325.4465637207031 L 860.6593017578125 340.2265625 ZM 910.9110717773438 361.3865661621094 C 901.9310302734375 361.3865661621094 897.4410400390625 356.8932189941406 897.4410400390625 347.90655517578125 L 897.4410400390625 325.4465637207031 C 897.4410400390625 316.466552734375 901.9310302734375 311.9765625 910.9110717773438 311.9765625 L 921.2510375976562 311.9765625 C 930.2310791015625 311.9765625 934.7210693359375 316.466552734375 934.7210693359375 325.4465637207031 L 934.7210693359375 327.8265686035156 L 906.56103515625 349.6165771484375 C 906.9810791015625 352.06988525390625 908.4310302734375 353.29656982421875 910.9110717773438 353.29656982421875 L 921.2510375976562 353.29656982421875 C 924.244384765625 353.29656982421875 925.7410278320312 351.4999084472656 925.7410278320312 347.90655517578125 L 925.7410278320312 345.5265808105469 L 934.2710571289062 341.486572265625 L 934.7210693359375 341.486572265625 L 934.7210693359375 347.90655517578125 C 934.7210693359375 356.8932189941406 930.2310791015625 361.3865661621094 921.2510375976562 361.3865661621094 L 910.9110717773438 361.3865661621094 M 906.4210205078125 340.2265625 L 925.6910400390625 324.6865539550781 C 925.5110473632812 321.59991455078125 924.0310668945312 320.05657958984375 921.2510375976562 320.05657958984375 L 910.9110717773438 320.05657958984375 C 907.917724609375 320.05657958984375 906.4210205078125 321.8532409667969 906.4210205078125 325.4465637207031 L 906.4210205078125 340.2265625 ZM 943.2027587890625 363.1865539550781 L 943.2027587890625 325.4465637207031 C 943.2027587890625 316.466552734375 947.6927490234375 311.9765625 956.6727905273438 311.9765625 L 967.9127807617188 311.9765625 L 967.9127807617188 312.42657470703125 L 964.312744140625 320.05657958984375 L 956.6727905273438 320.05657958984375 C 953.679443359375 320.05657958984375 952.1827392578125 321.8532409667969 952.1827392578125 325.4465637207031 L 952.1827392578125 359.1365661621094 L 943.6527709960938 363.1865539550781 L 943.2027587890625 363.1865539550781 Z" transform="matrix(1, 0, 0, 1, -155.2941131591797, -261.1764831542969)" style="fill: rgb(26, 31, 52); white-space: pre; color: rgb(51, 51, 51); stroke: rgb(28, 33, 48); stroke-width: 3;"/><g transform="matrix(0.7997774481773376, 0, 0, 0.7997774481773376, -449.726450920105, -68.9485092163086)"><g transform="matrix(1, 0, 0, 1, -49.411762237548714, -453.14202880859386)"><g transform="matrix(1, 0, 0, 1, 5.684341886080802e-14, -5.684341886080802e-14)">
			<path class="st1" d="M758.3,548.1H635.2c-3.9,0-7,3.5-7,7.7V634c0,4.3,3.1,7.7,7,7.7h123.1c3.9,0,7.1-3.5,7.1-7.7v-78.1&#10;&#9;&#9;&#9;&#9;C765.4,551.6,762.2,548.1,758.3,548.1z M754.3,631.2H638.7v-73.5h115.6V631.2z" style="fill: rgb(26, 31, 52); opacity: 1; stroke: rgb(28, 33, 48);"/>
			<g>
				<path class="st1" d="M782.1,678.4c0.2,0,0.4,0.1,0.6,0.2h0.3l-20.2-32l-132.4-0.3l-15.2,32.3h0.4c0.2-0.1,0.4-0.2,0.6-0.2H782.1&#10;&#9;&#9;&#9;&#9;&#9;z M681.1,674.8l2.2-4.5l29.7,0l3,4.4H681.1z M637.6,650.7l117.4,0.1l10.3,16.1l-134.8-0.2L637.6,650.7z" style="fill: rgb(26, 31, 52); opacity: 1; stroke: rgb(28, 33, 48);"/>
				<path class="st1" d="M782.7,683.2h-167c-0.8,0.5-1.4,2.2-1.4,4.2c0,2.5,0.9,4.4,2,4.4h165.9c1.1,0,2-2,2-4.4&#10;&#9;&#9;&#9;&#9;&#9;C784.1,685.4,783.5,683.7,782.7,683.2z" style="fill: rgb(26, 31, 52); opacity: 1; stroke: rgb(28, 33, 48);"/>
			</g>
		</g></g></g><g transform="matrix(0.4314785897731781, 0, 0, 0.4314785897731781, 340.1005754470825, -351.1150131225586)"><g id="g-1" transform="matrix(1, 0, 0, 1, 0, 0)">
			<g id="g-2">
				<path id="path-1" fill="#CCCCCC" d="M1150.2,985.3v39.7c0,32,26,58,58,58l0,0c32,0,58-26,58-58v-39.7H1150.2z" style="fill: rgb(26, 31, 52); stroke: rgb(28, 33, 48);"/>
				<path id="path-2" fill="#CCCCCC" d="M1246.5,913.7h-32.6v-3.8h-2.9v-12.4h7.8c9.4,0,17.1-7.7,17.1-17.1&#10;&#9;&#9;&#9;&#9;&#9;c0-9.4-7.7-17.1-17.1-17.1h-60.3v6.9h60.3c5.6,0,10.1,4.5,10.1,10.1c0,5.6-4.5,10.1-10.1,10.1h-11.3c-1.9,0-3.5,1.5-3.5,3.5&#10;&#9;&#9;&#9;&#9;&#9;v15.9h-2.9v3.8h-31.4c-10.9,0-19.7,8.8-19.7,19.7v44.5h116v-44.5C1266.2,922.5,1257.3,913.7,1246.5,913.7z M1216.9,962.8&#10;&#9;&#9;&#9;&#9;&#9;c0,4.3-3.5,7.9-7.9,7.9h-3c-4.3,0-7.9-3.5-7.9-7.9v-9.2c0-3.7,2.5-6.7,5.9-7.6v-27.9h6.9V946c3.4,0.9,5.9,3.9,5.9,7.6V962.8z" style="fill: rgb(26, 31, 52); stroke: rgb(28, 33, 48);"/>
			</g>
			<path id="path-3" fill="#CCCCCC" d="M1207.6,966L1207.6,966c-1.6,0-2.9-1.3-2.9-2.9v-9.4c0-1.6,1.3-2.9,2.9-2.9l0,0&#10;&#9;&#9;&#9;&#9;c1.6,0,2.9,1.3,2.9,2.9v9.4C1210.5,964.7,1209.2,966,1207.6,966z" style="fill: rgb(26, 31, 52); stroke: rgb(28, 33, 48);"/>
		</g></g></svg>